<svg width="64" height="64" viewBox="0 0 64 64" fill="none" xmlns="http://www.w3.org/2000/svg">
    <path d="M44 53.0606C47.652 51.9542 50.9869 49.3945 53.4234 45.6633C60.6326 34.6234 60.3924 19.7822 53.2732 15.6719C50.8558 14.2762 47.7634 14.1861 44.5 15.1363C44.2391 15.2123 43.9771 15.2949 43.7143 15.3841" stroke="currentColor" stroke-width="4" stroke-linecap="round" stroke-linejoin="round"/>
    <path d="M6.05506 37.929C6.62442 48.2912 13.5938 56 23.535 56C33.4761 56 40.4455 48.2912 41.0149 37.929C41.8508 22.7145 33.035 8 23.535 8C14.035 8 5.21908 22.7145 6.05506 37.929Z" stroke="currentColor" stroke-width="4" stroke-linecap="round" stroke-linejoin="round"/>
    <path d="M15.577 29C16.5235 24.8395 18.5391 20.8125 20.9064 19" stroke="currentColor" stroke-width="4" stroke-linecap="round" stroke-linejoin="round"/>
</svg>
