<svg width="64" height="64" viewBox="0 0 64 64" fill="none" xmlns="http://www.w3.org/2000/svg">
    <path
        d="M19 18.4809L14.6909 9.08003C22.7143 3.4395 39.4286 5.31968 39.4286 16.6007M6 41.043C6 7.19985 58 9.08003 58 37.2826C52.4286 41.043 41.2857 42.9232 30.1429 37.2826C21.8375 33.0785 6 31.6421 6 41.043ZM6 41.043C6 63.6051 30.1429 61.7249 26.4286 46.6835C19 48.5637 6 48.5637 6 41.043ZM33.8571 26.0016C32.1419 32.2973 34.2662 40.8106 43.5519 40.8106"
        stroke="currentColor" stroke-width="4" stroke-linecap="round" stroke-linejoin="round" />
    <path fill-rule="evenodd" clip-rule="evenodd"
        d="M45.0026 27L44.9974 27C46.6557 27 48 28.3431 48 30C48 31.6568 46.6557 33 44.9974 33L45.0026 33C43.3443 33 42 31.6569 42 30C42 28.3432 43.3443 27 45.0026 27Z"
        fill="currentColor" />
</svg>