<svg width="64" height="64" viewBox="0 0 64 64" fill="none" xmlns="http://www.w3.org/2000/svg">
    <ellipse cx="44.7695" cy="19.2017" rx="5.53808" ry="1.97048" transform="rotate(45 44.7695 19.2017)"
        fill="currentColor" />
    <path
        d="M6 50.6149C7.74639 50.1784 9.90837 50.8308 11.5387 52.4612M11.5387 52.4612C13.169 54.0915 13.8214 56.2536 13.3849 58M11.5387 52.4612L19.7027 44.2968M19.7027 44.2968C21.7425 46.3366 25.1004 46.2511 27.8343 45.3308C34.2962 43.1554 43.4586 44.5486 56.7801 31.2267M19.7027 44.2968C17.663 42.2571 17.7501 38.9005 18.6704 36.1666C20.8457 29.7045 19.4525 20.5419 32.774 7.21998M56.7801 31.2267C53.7205 34.2864 45.8663 31.3927 39.2372 24.7634C32.6081 18.1341 29.7144 10.2797 32.774 7.21998M56.7801 31.2267C59.8396 28.1671 56.946 20.3126 50.3169 13.6833C43.6878 7.05406 35.8336 4.16031 32.774 7.21998"
        stroke="currentColor" stroke-width="4" stroke-linecap="round" stroke-linejoin="round" />
</svg>