<svg width="64" height="64" viewBox="0 0 64 64" fill="none" xmlns="http://www.w3.org/2000/svg">
    <path
        d="M26.1791 9.40032L25.0245 7.76726C24.2376 8.32362 23.9593 9.36202 24.3626 10.2373L26.1791 9.40032ZM44.9285 14.4242L46.0831 16.0573C46.87 15.5009 47.1482 14.4625 46.7449 13.5873L44.9285 14.4242ZM27.3337 11.0334C29.8247 9.27214 33.0438 8.59403 36.2152 9.4438L37.2505 5.58009C32.8825 4.40971 28.4446 5.34916 25.0245 7.76726L27.3337 11.0334ZM36.2152 9.4438C39.3866 10.2936 41.8353 12.4904 43.112 15.2612L46.7449 13.5873C44.9921 9.78305 41.6184 6.75048 37.2505 5.58009L36.2152 9.4438ZM43.7739 12.7912C41.2828 14.5524 38.0637 15.2305 34.8923 14.3807L33.8571 18.2444C38.225 19.4148 42.663 18.4754 46.0831 16.0573L43.7739 12.7912ZM34.8923 14.3807C31.721 13.531 29.2722 11.3342 27.9955 8.56336L24.3626 10.2373C26.1155 14.0415 29.4891 17.0741 33.8571 18.2444L34.8923 14.3807Z"
        fill="#00443a" />
    <path
        d="M6.22126 17.2213L6.03787 15.2297C5.07822 15.3181 4.31805 16.0782 4.22969 17.0379L6.22126 17.2213ZM19.9468 30.9468L20.1302 32.9384C21.0898 32.85 21.85 32.0898 21.9384 31.1302L19.9468 30.9468ZM6.40465 19.2128C9.44261 18.9331 12.5695 19.9554 14.8911 22.277L17.7195 19.4485C14.522 16.251 10.2088 14.8456 6.03787 15.2297L6.40465 19.2128ZM14.8911 22.277C17.2127 24.5986 18.2349 27.7254 17.9552 30.7634L21.9384 31.1302C22.3224 26.9592 20.917 22.6461 17.7195 19.4485L14.8911 22.277ZM19.7634 28.9552C16.7254 29.2349 13.5986 28.2127 11.277 25.8911L8.44855 28.7195C11.6461 31.917 15.9592 33.3224 20.1302 32.9384L19.7634 28.9552ZM11.277 25.8911C8.95537 23.5695 7.9331 20.4426 8.21284 17.4046L4.22969 17.0379C3.84562 21.2088 5.25101 25.5219 8.44855 28.7195L11.277 25.8911Z"
        fill="#00443a" />
    <path
        d="M55.4242 19.1791L57.0573 18.0245C56.5009 17.2376 55.4625 16.9593 54.5873 17.3626L55.4242 19.1791ZM50.4003 37.9285L48.7673 39.0831C49.3236 39.87 50.362 40.1482 51.2373 39.7449L50.4003 37.9285ZM53.7912 20.3337C55.5524 22.8247 56.2305 26.0438 55.3807 29.2152L59.2444 30.2505C60.4148 25.8825 59.4754 21.4446 57.0573 18.0245L53.7912 20.3337ZM55.3807 29.2152C54.531 32.3866 52.3342 34.8353 49.5634 36.112L51.2373 39.7449C55.0415 37.992 58.0741 34.6184 59.2444 30.2505L55.3807 29.2152ZM52.0334 36.7739C50.2722 34.2828 49.594 31.0637 50.4438 27.8923L46.5801 26.8571C45.4097 31.225 46.3492 35.6629 48.7673 39.0831L52.0334 36.7739ZM50.4438 27.8923C51.2936 24.721 53.4904 22.2722 56.2612 20.9955L54.5873 17.3626C50.783 19.1155 47.7505 22.4891 46.5801 26.8571L50.4438 27.8923Z"
        fill="#00443a" />
    <path
        d="M39.9468 26.2213L41.9384 26.0379C41.85 25.0782 41.0898 24.3181 40.1302 24.2297L39.9468 26.2213ZM26.2213 39.9468L24.2297 40.1302C24.318 41.0898 25.0782 41.85 26.0379 41.9384L26.2213 39.9468ZM37.9552 26.4046C38.235 29.4426 37.2127 32.5695 34.8911 34.8911L37.7195 37.7195C40.917 34.522 42.3224 30.2088 41.9384 26.0379L37.9552 26.4046ZM34.8911 34.8911C32.5695 37.2127 29.4426 38.235 26.4046 37.9552L26.0379 41.9384C30.2088 42.3224 34.5219 40.917 37.7195 37.7195L34.8911 34.8911ZM28.2128 39.7634C27.9331 36.7254 28.9554 33.5986 31.277 31.277L28.4485 28.4485C25.251 31.6461 23.8456 35.9592 24.2297 40.1302L28.2128 39.7634ZM31.277 31.277C33.5986 28.9554 36.7254 27.9331 39.7634 28.2128L40.1302 24.2297C35.9592 23.8456 31.6461 25.251 28.4485 28.4485L31.277 31.277Z"
        fill="#00443a" />
    <path
        d="M19.6506 55.719L19.3123 57.6902C20.2621 57.8532 21.1932 57.3157 21.5269 56.4116L19.6506 55.719ZM9.94522 38.9087L10.2835 36.9376C9.33372 36.7745 8.40271 37.3121 8.06898 38.2161L9.94522 38.9087ZM19.989 53.7478C16.9821 53.2318 14.2264 51.435 12.5848 48.5916L9.12066 50.5916C11.3817 54.5078 15.1841 56.9816 19.3123 57.6902L19.989 53.7478ZM12.5848 48.5916C10.9431 45.7483 10.765 42.4634 11.8215 39.6013L8.06898 38.2161C6.61846 42.1456 6.85965 46.6755 9.12066 50.5916L12.5848 48.5916ZM9.60691 40.8799C12.6138 41.396 15.3695 43.1927 17.0111 46.0361L20.4752 44.0361C18.2142 40.1199 14.4118 37.6461 10.2835 36.9376L9.60691 40.8799ZM17.0111 46.0361C18.6527 48.8795 18.8309 52.1644 17.7744 55.0264L21.5269 56.4116C22.9774 52.4822 22.7362 47.9523 20.4752 44.0361L17.0111 46.0361Z"
        fill="#00443a" />
    <path
        d="M52.9285 55.4242L54.0831 57.0573C54.87 56.5009 55.1482 55.4625 54.7449 54.5872L52.9285 55.4242ZM34.1791 50.4003L33.0245 48.7673C32.2376 49.3236 31.9593 50.362 32.3626 51.2373L34.1791 50.4003ZM51.7739 53.7912C49.2828 55.5524 46.0637 56.2305 42.8923 55.3807L41.8571 59.2444C46.225 60.4148 50.663 59.4754 54.0831 57.0573L51.7739 53.7912ZM42.8923 55.3807C39.721 54.531 37.2722 52.3342 35.9955 49.5634L32.3626 51.2373C34.1155 55.0415 37.4891 58.0741 41.8571 59.2444L42.8923 55.3807ZM35.3337 52.0334C37.8248 50.2721 41.0438 49.594 44.2152 50.4438L45.2505 46.5801C40.8825 45.4097 36.4446 46.3492 33.0245 48.7673L35.3337 52.0334ZM44.2152 50.4438C47.3866 51.2936 49.8353 53.4904 51.112 56.2612L54.7449 54.5872C52.9921 50.783 49.6184 47.7505 45.2505 46.5801L44.2152 50.4438Z"
        fill="#00443a" />
</svg>