<svg width="64" height="64" viewBox="0 0 64 64" fill="none" xmlns="http://www.w3.org/2000/svg">
    <path d="M58 26C52.6781 16.3238 42.0505 11.6411 36.536 11.046C36.1853 11.0082 35.8338 11.0831 35.5183 11.2408L6 26"
        stroke="currentColor" stroke-width="4" stroke-linecap="round" stroke-linejoin="round" />
    <path
        d="M46 26V24C44.8954 24 44 24.8954 44 26H46ZM58 26H60C60 24.8954 59.1046 24 58 24V26ZM58 53V55C59.1046 55 60 54.1046 60 53H58ZM30 53H28C28 54.1046 28.8954 55 30 55V53ZM18 53V55C19.1046 55 20 54.1046 20 53H18ZM6 53H4C4 54.1046 4.89543 55 6 55V53ZM6 26V24C4.89543 24 4 24.8954 4 26H6ZM34 26H36C36 24.8954 35.1046 24 34 24V26ZM44 26C44 28.2091 42.2091 30 40 30V34C44.4183 34 48 30.4183 48 26H44ZM58 24H46V28H58V24ZM60 53V26H56V53H60ZM30 55H58V51H30V55ZM24 49C26.2091 49 28 50.7909 28 53H32C32 48.5817 28.4183 45 24 45V49ZM20 53C20 50.7909 21.7909 49 24 49V45C19.5817 45 16 48.5817 16 53H20ZM6 55H18V51H6V55ZM4 26V53H8V26H4ZM34 24H6V28H34V24ZM40 30C37.7909 30 36 28.2091 36 26H32C32 30.4183 35.5817 34 40 34V30Z"
        fill="currentColor" />
    <circle cx="48" cy="44" r="3" fill="currentColor" />
    <circle cx="14.5" cy="40.5" r="2.5" fill="currentColor" />
    <circle cx="25" cy="36" r="3" fill="currentColor" />
    <circle cx="35.5" cy="41.5" r="2.5" fill="currentColor" />
</svg>