<svg width="64" height="64" viewBox="0 0 64 64" fill="none" xmlns="http://www.w3.org/2000/svg">
    <path d="M39.7895 9C35.6427 9.92849 31.5 14.5 31.5 19.5M19 36.5C18.7453 32.658 20.2525 29.5125 23.4139 28.7084"
        stroke="#00443a" stroke-width="4" stroke-linecap="round" stroke-linejoin="round" />
    <path
        d="M20.4584 20.3605C12.2035 22.3844 7.95529 32.3704 10.9697 42.6648C13.6224 51.7236 20.1032 58.0025 27.4646 58C29.5073 58 31.0038 57.2016 32.0313 56.3785C33.0588 57.2016 34.4927 58 36.5354 58C43.8968 58.0025 50.3777 51.7236 53.0303 42.6648C56.0447 32.3704 51.7965 22.3844 43.5416 20.3604C40.4052 19.5914 37.1416 20.0825 34.1349 21.5517C33.4671 21.878 32.7336 22.0412 32 22.0412C31.2664 22.0412 30.5329 21.878 29.8651 21.5517C26.8584 20.0825 23.5948 19.5914 20.4584 20.3605Z"
        stroke="#00443a" stroke-width="4" stroke-linecap="round" stroke-linejoin="round" />
    <path d="M31.1193 21C33.8266 7.86073 21.3731 5.12338 16.5 6.21832C16 8.5 16.3756 11.8101 18 14" stroke="#00443a"
        stroke-width="4" stroke-linecap="round" stroke-linejoin="round" />
</svg>