<svg width="64" height="64" viewBox="0 0 64 64" fill="none" xmlns="http://www.w3.org/2000/svg">
    <path
        d="M17.5 8C17.5 6.89543 18.3954 6 19.5 6H25.5C26.6046 6 27.5 6.89543 27.5 8V11C27.5 12.1046 26.6046 13 25.5 13H19.5C18.3954 13 17.5 12.1046 17.5 11V8Z"
        stroke="currentColor" stroke-width="4" stroke-linecap="round" stroke-linejoin="round" />
    <path
        d="M19 13V18.5949C19 21.0693 17.9009 23.4159 16 25V25C14.0991 26.5841 13 28.9307 13 31.4051V56C13 57.1046 13.8954 58 15 58H20M26.5 13V18.5949C26.5 21.0693 27.5991 23.4159 29.5 25V25C31.4009 26.5841 32.5 28.9307 32.5 31.4051V40"
        stroke="currentColor" stroke-width="4" stroke-linecap="round" stroke-linejoin="round" />
    <path d="M13.5 34L32.5 34" stroke="currentColor" stroke-width="4" stroke-linecap="round" stroke-linejoin="round" />
    <path
        d="M48 49V56C48 57.1046 47.1046 58 46 58H32C30.8954 58 30 57.1046 30 56V49C30 47.8954 30.8954 47 32 47H46C47.1046 47 48 47.8954 48 49Z"
        stroke="currentColor" stroke-width="4" stroke-linecap="round" stroke-linejoin="round" />
    <path d="M27 58H51" stroke="currentColor" stroke-width="4" stroke-linecap="round" stroke-linejoin="round" />
</svg>